<?xml version="1.0" encoding="UTF-8"?>
<svg width="64px" height="64px" viewBox="0 0 64 64" version="1.1" xmlns="http://www.w3.org/2000/svg" xmlns:xlink="http://www.w3.org/1999/xlink">
    <title>Frame 2</title>
    <defs>
        <path d="M2.5638852,-1.13354267e-16 L61.4361148,0 C62.3276335,0 62.6509198,0.0928256112 62.9768457,0.267132704 C63.3027716,0.441439796 63.5585602,0.697228371 63.7328673,1.0231543 C63.9071744,1.34908022 64,1.67236646 64,2.5638852 L64,61.4361148 C64,62.3276335 63.9071744,62.6509198 63.7328673,62.9768457 C63.5585602,63.3027716 63.3027716,63.5585602 62.9768457,63.7328673 C62.6509198,63.9071744 62.3276335,64 61.4361148,64 L2.5638852,64 C1.67236646,64 1.34908022,63.9071744 1.0231543,63.7328673 C0.697228371,63.5585602 0.441439796,63.3027716 0.267132704,62.9768457 C0.0928256112,62.6509198 0,62.3276335 0,61.4361148 L0,2.5638852 C0,1.67236646 0.0928256112,1.34908022 0.267132704,1.0231543 C0.441439796,0.697228371 0.697228371,0.441439796 1.0231543,0.267132704 C1.34908022,0.0928256112 1.67236646,6.58620937e-17 2.5638852,-1.13354267e-16 Z" id="path-1"></path>
    </defs>
    <g id="Frame-2" stroke="none" fill="none" xlink:href="#path-1">
        <use fill="#FDFDFD" fill-rule="evenodd" xlink:href="#path-1"></use>
        <text id="AC" font-family="HelveticaNeue-Medium, Helvetica Neue" font-size="28" font-weight="400" fill="#080808">
            <tspan x="12.554" y="43">AC</tspan>
        </text>
    </g>
</svg>